<?xml version="1.0" encoding="utf-8"?>
<!-- Generator: Adobe Illustrator 18.1.1, SVG Export Plug-In . SVG Version: 6.00 Build 0)  -->
<svg version="1.1" id="Layer_1" xmlns="http://www.w3.org/2000/svg" xmlns:xlink="http://www.w3.org/1999/xlink" x="0px" y="0px"
	 viewBox="0 0 357 357" enable-background="new 0 0 357 357" xml:space="preserve">
<g display="none">
	<path display="inline" fill="#672C90" d="M233.1,81.4c-36.2-6.9-72.9-6.9-109.1,0c-15.8,3.5-35.8,22.6-39.7,38
		c-6.5,29.7-6.5,59.8,0,89.6c3.9,15.4,23.8,34.5,39.7,38l0,0c0.7,0.1,1.2,0.8,1.2,1.5V292c0,2.2,2.7,3.2,4.2,1.7l20.7-21.2
		c0,0,16.5-16.9,19.4-20c0.3-0.3,0.7-0.5,1.1-0.4c20.9,0.6,41.8-1.1,62.5-5.1c15.8-3.5,35.8-22.6,39.7-38c6.5-29.7,6.5-59.9,0-89.6
		C268.8,104.1,248.9,85,233.1,81.4L233.1,81.4z M233.6,211.2c-3.2,6.7-7.8,12.3-14.4,15.9c-1.9,1-4.1,1.3-6.2,2
		c-2.4-0.7-4.8-1.2-6.9-2.1c-22.3-9.3-42.9-21.2-59.2-39.5c-9.3-10.4-16.5-22.2-22.6-34.6c-2.9-5.9-5.4-12-7.8-18.1
		c-2.3-5.6,1.1-11.3,4.6-15.5c3.3-3.9,7.6-6.9,12.2-9.2c3.6-1.7,7.2-0.7,9.8,2.3c5.7,6.6,10.9,13.5,15.1,21.2
		c2.6,4.7,1.9,10.5-2.8,13.7c-1.1,0.8-2.2,1.7-3.3,2.6c-0.9,0.8-1.8,1.6-2.5,2.6c-1.2,1.9-1.2,4.2-0.5,6.2
		c5.8,16,15.6,28.4,31.7,35.1c2.6,1.1,5.2,2.3,8.1,2c5-0.6,6.6-6,10.1-8.9c3.4-2.8,7.7-2.8,11.4-0.5c3.7,2.3,7.2,4.8,10.7,7.3
		c3.5,2.5,6.9,4.9,10.1,7.7C234.3,204,235.4,207.5,233.6,211.2L233.6,211.2z M204.8,159.2c-1.4,0-0.8,0-0.3,0
		c-2.2-0.1-3.5-1.4-3.7-3.5c-0.2-1.6-0.3-3.1-0.7-4.7c-0.7-3-2.3-5.8-4.8-7.6c-1.2-0.9-2.5-1.5-3.9-1.9c-1.8-0.5-3.7-0.4-5.4-0.8
		c-1.9-0.5-3-2-2.7-3.9c0.3-1.7,1.9-2.9,3.7-2.8c11.3,0.8,19.4,6.7,20.6,20c0.1,0.9,0.2,1.9,0,2.8c-0.3,1.5-1.4,2.2-2.4,2.4
		C205,159.1,205,159.1,204.8,159.2L204.8,159.2z M197.7,128.7c-3.5-1.7-7.2-2.8-11-3.4c-1.7-0.3-3.3-0.4-5-0.7c-2-0.3-3.1-1.6-3-3.6
		c0.1-1.9,1.5-3.2,3.5-3.1c6.7,0.4,13.2,1.8,19.1,5c12.1,6.4,19,16.6,21.1,30.1c0.1,0.6,0.2,1.2,0.3,1.8c0.1,1.5,0.2,3,0.3,5
		c0,0.4-0.1,1.2-0.3,2c-0.8,2.9-5.2,3.3-6.2,0.3c-0.3-0.9-0.3-1.9-0.4-2.8c0-6.2-1.4-12.4-4.5-17.8
		C208.4,136.1,203.5,131.5,197.7,128.7L197.7,128.7z M235.2,170.5c-2.3,0-3.4-1.9-3.5-4c-0.3-4.2-0.5-8.3-1.1-12.5
		c-3-21.8-20.4-39.8-42-43.6c-3.3-0.6-6.6-0.7-9.9-1.1c-2.1-0.2-4.8-0.3-5.3-2.9c-0.4-2.2,1.4-3.9,3.5-4c0.6,0,1.1,0,1.7,0
		c28.1,0.8,1.7,0.1,0.1,0c29.2,0.9,53.1,20.2,58.3,49.1c0.9,4.9,1.2,10,1.6,14.9C238.6,168.4,237.5,170.4,235.2,170.5L235.2,170.5z
		 M235.2,170.5"/>
	<path display="inline" fill="none" d="M293.7,114.4c-5.8-23.5-32.1-48.8-56.2-54.1l-0.3-0.1c-39-7.4-78.5-7.4-117.5,0l-0.3,0.1
		c-24.1,5.3-50.4,30.5-56.2,54.1l-0.1,0.3c-7.2,32.9-7.2,66.2,0,99.1l0.1,0.3c4.1,16.5,18.2,33.8,34.5,44.5
		c11.5,7.6,18.6,20.4,18.6,34.2v0.9c0,9.5,11.6,14.2,18.2,7.3l14.1-14.7c7.8-8.1,18.5-12.5,29.7-12.5c0.1,0,0.1,0,0.2,0
		c19.6,0,39.3-1.9,58.8-5.6l0.3-0.1c24.1-5.3,50.4-30.5,56.2-54.1l0.1-0.3c7.2-32.9,7.2-66.2,0-99.1L293.7,114.4z"/>
	<path display="inline" fill="#672C90" d="M178.5,0C79.9,0,0,79.9,0,178.5S79.9,357,178.5,357S357,277.1,357,178.5S277.1,0,178.5,0z
		 M293.8,213.8l-0.1,0.3c-5.8,23.5-32.1,48.8-56.2,54.1l-0.3,0.1c-19.5,3.7-39.1,5.6-58.8,5.6c-0.1,0-0.1,0-0.2,0
		c-11.2,0-21.9,4.4-29.7,12.5l-14.1,14.7c-6.6,6.9-18.2,2.2-18.2-7.3v-0.9c0-13.8-7-26.6-18.6-34.2c-16.4-10.7-30.4-28-34.5-44.5
		l-0.1-0.3c-7.2-32.9-7.2-66.2,0-99.1l0.1-0.3c5.8-23.5,32.1-48.8,56.2-54.1l0.3-0.1c39-7.4,78.5-7.4,117.5,0l0.3,0.1
		c24.1,5.3,50.4,30.5,56.2,54.1l0.1,0.3C301,147.5,301,180.9,293.8,213.8z"/>
</g>
<g display="none">
	<circle display="inline" fill="#F17922" cx="178.5" cy="178.5" r="178.5"/>
	<g display="inline">
		<path fill="#FFFFFF" d="M196.2,210.9h-0.7c-5.8,15.8-16.3,23.7-31.5,23.7c-11.4,0-20.6-4.1-27.6-12.4c-7-8.3-10.5-19.7-10.5-34.3
			c0-18.9,4.8-34.3,14.5-46.2c9.7-11.9,21.3-17.8,35-17.8c12.3,0,20,4.8,23.2,14.5h0.5l1.2-12.3h27.9c-3.7,35.2-5.6,58.2-5.6,69
			c0,11.6,3.1,17.4,9.4,17.4c6.6,0,12.1-4.4,16.4-13.1c4.3-8.8,6.4-20.2,6.4-34.3c0-19.3-6.2-35.2-18.5-47.5
			c-12.3-12.4-29.5-18.5-51.6-18.5c-23.6,0-43.3,8.2-58.9,24.7c-15.7,16.5-23.5,36.6-23.5,60.3c0,23,6.9,41.1,20.8,54.3
			c13.8,13.2,33,19.8,57.3,19.8c18.6,0,35.6-3.6,51.1-10.7v23.7c-14.1,6-32.3,9-54.5,9c-30.5,0-55.3-8.7-74.4-26.2
			c-19.1-17.5-28.7-41-28.7-70.5c0-30.1,10.2-55.4,30.6-75.9c20.4-20.5,46.7-30.7,78.8-30.7c29.8,0,53.8,8,72.2,23.9
			c18.4,15.9,27.6,36.9,27.6,62.9c0,21.4-5.6,38.6-16.9,51.5c-11.2,12.9-25.2,19.4-41.8,19.4c-8.2,0-14.8-2.2-20-6.6
			C199.4,223.6,196.6,217.9,196.2,210.9z M179.7,145.4c-7.4,0-13.5,4.2-18.2,12.7c-4.7,8.5-7,18.3-7,29.4c0,7.9,1.6,14.1,4.8,18.5
			c3.2,4.4,7.3,6.6,12.3,6.6c7.8,0,13.9-4.2,18.3-12.5c4.5-8.3,6.7-19.5,6.7-33.5c0-6.6-1.5-11.8-4.6-15.6
			C189,147.3,184.9,145.4,179.7,145.4z"/>
	</g>
</g>
<g display="none">
	<circle display="inline" fill="#324B7F" cx="178.5" cy="178.5" r="178.5"/>
	<path display="inline" fill="#F2F2F2" d="M223.7,178.6h-29.6V284h-43.8V178.6h-20.9v-37.3h20.9v-24.1c0-17.2,8.2-44.2,44.2-44.2
		l32.5,0.1v36.2h-23.6c-3.9,0-9.3,1.9-9.3,10.2v21.9h33.4L223.7,178.6z M223.7,178.6"/>
</g>
<g>
	<circle fill="#2CADE3" cx="178.5" cy="178.5" r="178.5"/>
	<g>
		<path fill="#F2F2F2" d="M267.9,192.6c0.7-4.6,1.1-9.3,1.1-14.1c0-50-40.5-90.5-90.5-90.5c-4.8,0-9.5,0.4-14.1,1.1
			c-8.3-5.2-18.2-8.1-28.7-8.1c-30.2,0-54.7,24.5-54.7,54.7c0,10.5,3,20.4,8.1,28.7c-0.7,4.6-1.1,9.3-1.1,14.1
			c0,50,40.5,90.5,90.5,90.5c4.8,0,9.5-0.4,14.1-1.1c8.4,5.1,18.2,8.1,28.7,8.1c30.2,0,54.7-24.5,54.7-54.7
			C276.1,210.8,273.1,201,267.9,192.6L267.9,192.6z M221.5,219.7c-3.8,5.5-9.5,9.8-16.8,12.9c-7.4,3.1-16.1,4.7-26.1,4.7
			c-12,0-22-2.1-29.9-6.4c-5.6-3-10.1-7.1-13.6-12.2c-3.5-5.1-5.3-10.1-5.3-15c0-2.9,1.1-5.4,3.2-7.4c2.2-2,4.9-3.1,8.2-3.1
			c2.7,0,5,0.8,6.9,2.4c1.9,1.6,3.4,3.9,4.7,7c1.5,3.6,3.2,6.5,5,8.9c1.8,2.4,4.2,4.3,7.4,5.8c3.2,1.5,7.4,2.3,12.7,2.3
			c7.2,0,13.1-1.6,17.6-4.7c4.5-3.1,6.7-6.9,6.7-11.5c0-3.7-1.2-6.6-3.5-8.8c-2.4-2.3-5.5-4-9.4-5.3c-3.9-1.2-9.1-2.5-15.6-3.9
			c-8.8-1.9-16.1-4.1-22-6.7c-5.9-2.6-10.7-6.1-14.2-10.5c-3.5-4.5-5.3-10-5.3-16.6c0-6.3,1.9-11.9,5.5-16.8
			c3.7-4.9,9.1-8.7,16-11.3c7-2.6,15.2-3.9,24.5-3.9c7.5,0,14,0.9,19.5,2.6c5.5,1.7,10,4,13.7,6.9c3.6,2.9,6.3,5.9,8,9.1
			c1.7,3.2,2.5,6.3,2.5,9.3c0,2.8-1.1,5.4-3.2,7.6c-2.1,2.3-4.9,3.4-8.1,3.4c-2.9,0-5.1-0.7-6.7-2.1c-1.5-1.4-3.1-3.5-4.9-6.5
			c-2.2-4.2-4.8-7.5-7.9-9.8c-3-2.3-7.9-3.5-14.7-3.5c-6.3,0-11.4,1.3-15.2,3.8c-3.8,2.6-5.7,5.5-5.7,9c0,2.2,0.6,4,1.9,5.6
			c1.3,1.6,3.1,3,5.4,4.1c2.3,1.2,4.6,2.1,7,2.7c2.4,0.7,6.3,1.6,11.8,2.9c6.8,1.5,13.1,3.1,18.7,4.9c5.6,1.8,10.3,4,14.3,6.6
			c4,2.6,7.1,5.9,9.3,9.9c2.2,4,3.3,8.9,3.3,14.6C227.2,207.9,225.3,214.2,221.5,219.7L221.5,219.7z M221.5,219.7"/>
	</g>
</g>
</svg>
