<?xml version="1.0" encoding="utf-8"?>
<!-- Generator: Adobe Illustrator 19.2.1, SVG Export Plug-In . SVG Version: 6.00 Build 0)  -->
<svg version="1.1" id="Layer_1" xmlns="http://www.w3.org/2000/svg" xmlns:xlink="http://www.w3.org/1999/xlink" x="0px" y="0px"
	 viewBox="0 0 653.3 450" style="enable-background:new 0 0 653.3 450;" xml:space="preserve">
<style type="text/css">
	.st0{fill:#88B1D4;}
</style>
<g>
	<path class="st0" d="M387.8,216.8l-61.3-40.4c-1.2-1.2-3.5-1.2-5.4,0l-21.4,14.3v-6.1c0-2.9-3.5-5.9-8.3-5.9c-4.7,0-8.4,3-8.4,5.9
		v17.2l-22.4,15c-1.9,1.2-1.9,3.5-0.5,4.7c1,1.2,4,1.2,5.7,0l58.3-38.6l58.3,38.6c0.7,0.5,1.7,1.2,2.4,1.2c1.2,0,2.4-0.7,3-1.2
		C389.6,220.4,389.6,218,387.8,216.8L387.8,216.8z M259.2,236.4c6.6,12.5,13.1,25.6,19.7,38.1c14.3-11.3,46.3-3.5,69.6-5.4
		c14.8-8.3,29.7-16,44.7-24.4c3-8.3,0-13-11.3-13.7c-10.1,5.9-20.7,12-30.8,17.9c-10.8-1.9-21.4-2.9-32.2-4.7
		c-14.8-20.2,19.5-4.2,29.2-5.9c5.9-4,7.1-8.3,0-13c-16-3-32.2-6.6-48.2-10.1C286,222.2,273,229.3,259.2,236.4L259.2,236.4z"/>
</g>
</svg>
