<?xml version="1.0" encoding="utf-8"?>
<!-- Generator: Adobe Illustrator 19.2.1, SVG Export Plug-In . SVG Version: 6.00 Build 0)  -->
<svg version="1.1" id="Layer_1" xmlns="http://www.w3.org/2000/svg" xmlns:xlink="http://www.w3.org/1999/xlink" x="0px" y="0px"
	 viewBox="0 0 275 58.7" style="enable-background:new 0 0 275 58.7;" xml:space="preserve">
<style type="text/css">
	.st0{display:none;}
	.st1{display:inline;fill:#387DB8;}
	.st2{fill:#595959;}
	.st3{fill:#387DB8;}
</style>
<g class="st0">
	<path class="st1" d="M76.4,24.5L40,0.5c-0.7-0.7-2.1-0.7-3.2,0L24.1,9V5.4c0-1.7-2.1-3.5-4.9-3.5s-5,1.8-5,3.5v10.2L0.9,24.5
		c-1.1,0.7-1.1,2.1-0.3,2.8C1.2,28,3,28,4,27.3L38.6,4.4l34.6,22.9c0.4,0.3,1,0.7,1.4,0.7c0.7,0,1.4-0.4,1.8-0.7
		C77.5,26.6,77.5,25.2,76.4,24.5L76.4,24.5z M0.1,36.1C4,43.5,7.9,51.3,11.8,58.7c8.5-6.7,27.5-2.1,41.3-3.2
		C61.9,50.6,70.7,46,79.6,41c1.8-4.9,0-7.7-6.7-8.1c-6,3.5-12.3,7.1-18.3,10.6c-6.4-1.1-12.7-1.7-19.1-2.8
		c-8.8-12,11.6-2.5,17.3-3.5c3.5-2.4,4.2-4.9,0-7.7c-9.5-1.8-19.1-3.9-28.6-6C16,27.7,8.3,31.9,0.1,36.1L0.1,36.1z"/>
</g>
<path class="st2" d="M107.9,43.7h-6.6v-21h6.9c1.3,0,2.6,0.2,3.7,0.6s2.1,1,2.8,1.7c0.8,0.7,1.4,1.5,1.8,2.5s0.6,1.9,0.6,3
	s-0.2,2.1-0.6,3c-0.4,0.9-1,1.8-1.8,2.5s-1.7,1.3-2.8,1.7c-1.1,0.4-2.3,0.6-3.7,0.6h-0.3V43.7z M108.2,32.6c0.6,0,1.1-0.2,1.5-0.6
	s0.6-0.9,0.6-1.5s-0.2-1.1-0.6-1.5s-0.9-0.6-1.5-0.6h-0.3v4.2H108.2z"/>
<path class="st2" d="M133.1,35.3l4.2,8.4h-6.9l-3-7.2h-1.8v7.2H119v-21h8.4c1.3,0,2.4,0.2,3.5,0.6c1,0.4,1.9,0.9,2.6,1.6
	c0.7,0.7,1.3,1.4,1.7,2.3s0.6,1.8,0.6,2.8c0,0.9-0.1,1.7-0.4,2.3c-0.3,0.7-0.6,1.2-0.9,1.6c-0.3,0.4-0.8,0.8-1.3,1.2v0.2H133.1z
	 M127.4,31.4c0.5,0,0.8-0.1,1.1-0.4s0.4-0.6,0.4-1.1s-0.1-0.8-0.4-1.1c-0.3-0.3-0.6-0.4-1.1-0.4h-1.8v3H127.4z"/>
<path class="st2" d="M161.8,33.2c0,1.5-0.3,2.9-0.9,4.3c-0.6,1.3-1.4,2.5-2.4,3.5s-2.2,1.8-3.6,2.4c-1.4,0.6-2.9,0.9-4.4,0.9
	s-3.1-0.3-4.4-0.9c-1.4-0.6-2.6-1.4-3.6-2.4s-1.8-2.2-2.4-3.5c-0.6-1.3-0.9-2.8-0.9-4.3s0.3-2.9,0.9-4.3c0.6-1.3,1.4-2.5,2.4-3.5
	s2.2-1.8,3.6-2.4c1.4-0.6,2.9-0.9,4.4-0.9s3.1,0.3,4.4,0.9c1.4,0.6,2.6,1.4,3.6,2.4s1.8,2.2,2.4,3.5
	C161.5,30.3,161.8,31.7,161.8,33.2z M154.9,33.2c0-0.7-0.1-1.4-0.4-2.1c-0.2-0.6-0.6-1.2-1-1.6c-0.4-0.5-0.9-0.8-1.4-1.1
	c-0.5-0.2-1.1-0.4-1.7-0.4c-0.6,0-1.2,0.1-1.7,0.4s-1,0.6-1.4,1.1c-0.4,0.4-0.7,1-1,1.6c-0.2,0.6-0.4,1.3-0.4,2.1s0.1,1.4,0.4,2.1
	c0.2,0.6,0.6,1.2,1,1.6c0.4,0.5,0.9,0.8,1.4,1.1c0.5,0.2,1.1,0.4,1.7,0.4c0.6,0,1.2-0.1,1.7-0.4c0.5-0.2,1-0.6,1.4-1.1
	c0.4-0.4,0.7-1,1-1.6C154.8,34.6,154.9,34,154.9,33.2z"/>
<path class="st2" d="M164,22.7h6.6v21H164V22.7z"/>
<path class="st2" d="M173.3,22.7h15.4v5.7h-8.8v2.4h4.8v5.1h-4.8V38h9.1v5.7h-15.7V22.7z"/>
<path class="st2" d="M191.1,33.2c0-1.5,0.3-2.9,0.9-4.3c0.6-1.3,1.4-2.5,2.4-3.5s2.2-1.8,3.6-2.4c1.4-0.6,2.9-0.9,4.4-0.9
	c0.9,0,1.6,0.1,2.4,0.2c0.7,0.1,1.4,0.4,2,0.6c0.6,0.3,1.1,0.6,1.6,0.9s0.9,0.7,1.3,1c0.9,0.8,1.5,1.7,2.1,2.7l-5.4,3
	c-0.3-0.4-0.6-0.8-0.9-1.2c-0.3-0.3-0.7-0.6-1.2-0.8c-0.5-0.2-1.1-0.4-1.8-0.4c-0.6,0-1.2,0.1-1.7,0.4s-1,0.6-1.4,1.1
	c-0.4,0.4-0.7,1-1,1.6c-0.2,0.6-0.4,1.3-0.4,2.1s0.1,1.4,0.4,2.1c0.2,0.6,0.6,1.2,1,1.6c0.4,0.5,0.9,0.8,1.4,1.1
	c0.5,0.2,1.1,0.4,1.7,0.4c0.8,0,1.4-0.1,1.9-0.4c0.5-0.3,0.9-0.6,1.3-0.9c0.4-0.4,0.7-0.8,1-1.3l5.4,3c-0.5,1.1-1.2,2-2.1,2.8
	c-0.4,0.4-0.8,0.7-1.3,1s-1,0.6-1.7,0.9c-0.6,0.3-1.3,0.5-2.1,0.6c-0.7,0.2-1.6,0.2-2.5,0.2c-1.6,0-3.1-0.3-4.4-0.9
	c-1.4-0.6-2.6-1.4-3.6-2.4s-1.8-2.2-2.4-3.5C191.4,36.1,191.1,34.7,191.1,33.2z"/>
<path class="st2" d="M213.6,28.7v-6h15.6v6h-4.5v15h-6.6v-15H213.6z"/>
<path class="st3" d="M249.7,22.6h4.3v21.1h-6.6V31.9h-0.3l-3.9,3.9l-3.9-3.9H239v11.8h-6.6V22.6h4.3l6.5,6.3L249.7,22.6z"/>
<path class="st3" d="M263.9,22.7c1.6,0,3,0.3,4.4,0.8c1.4,0.6,2.5,1.3,3.5,2.3s1.8,2.1,2.3,3.3c0.6,1.3,0.9,2.6,0.9,4
	c0,1.4-0.3,2.8-0.9,4c-0.6,1.3-1.4,2.4-2.3,3.3c-1,1-2.2,1.7-3.5,2.3s-2.8,0.8-4.4,0.8h-7.2v-21h7.2V22.7z M263.3,38h0.6
	c0.5,0,1-0.1,1.5-0.4c0.5-0.2,1-0.6,1.3-1c0.4-0.4,0.7-0.9,0.9-1.5c0.2-0.6,0.4-1.2,0.4-1.9s-0.1-1.3-0.4-1.9
	c-0.2-0.6-0.6-1.1-0.9-1.5c-0.4-0.4-0.8-0.8-1.3-1s-1-0.4-1.5-0.4h-0.6V38z"/>
<path class="st2" d="M4.6,41.6c0,0.8,0.3,1.4,0.8,1.9c0.4,0.3,0.9,0.5,1.4,0.5l26.4-0.1c8.7,0,16.5,0,27.2,0c3,0,5.7,0,8.1,0h5.5
	c3.5,0,4.5,0,4.5,0c0,0,0,0,0,0c0,0,0.1,0,0.1,0l7.3-2.2c0,0,0.1,0,0.1,0c0,0,0.1-0.1,0.1-0.1c0,0,0-0.1-0.1-0.1c0,0-0.1,0-0.1,0
	l-7.3-2.2l-0.1,0c0,0,0,0,0,0h-4.3c-0.1,0-0.2,0-0.3,0h-5.4l-52.8,0.2l51.4-0.2L6.8,39.1C5.6,39.2,4.6,40.2,4.6,41.6z M78.8,42.2
	c0-0.1-0.1-0.2-0.2-0.2h0c-0.2,0-0.4-0.1-0.5-0.2c-0.1-0.1-0.2-0.2-0.2-0.4c0-0.1,0.1-0.3,0.2-0.4c0.1-0.1,0.3-0.1,0.5-0.2
	c0,0,0,0,0,0c0.1,0,0.1,0,0.2-0.1c0,0,0.1-0.1,0.1-0.1c0-0.1-0.1-0.2-0.2-0.2c0,0,0,0-0.1,0c0,0,0,0,0,0c-0.4,0-0.7-0.2-0.7-0.5
	c0-0.3,0.3-0.5,0.7-0.5l3.7,1.1v1.8l-3.7,1.1c-0.4,0-0.6-0.2-0.6-0.5c0-0.3,0.3-0.5,0.7-0.5C78.7,42.4,78.8,42.3,78.8,42.2z"/>
<path class="st3" d="M84.8,33L46.6,3.2c-0.9-0.7-2.2-0.7-3.2,0L5.6,32c-1.1,0.8-1.3,2.4-0.4,3.4c0.4,0.5,1,0.8,1.7,0.9
	c0.7,0.1,1.3-0.1,1.9-0.5L45,8.2l36.6,28.6c0.4,0.4,1,0.5,1.6,0.5c0.8,0,1.5-0.3,2-0.9C86.1,35.4,85.9,33.9,84.8,33z"/>
<path class="st2" d="M16.5,13.2c-0.2-0.4-0.6-0.9-0.5-1.3c0-0.4,0.5-0.8,0.7-1.3c1.2-2.1,2.1-4.4,2.3-6.8c0-0.3,0-0.7-0.1-1
	c-0.1-0.3,0-0.6,0.2-0.7c0.2-0.1,0.5-0.1,0.7,0c0.3,0.1,0.3,0.4,0.2,0.7c-0.1,0.2-0.1,0.4-0.1,0.6c0,0.5,0.1,0.9,0.2,1.4
	c0.5,2.4,1.5,4.7,2.8,6.8c0.1,0.2,0.1,0.4,0,0.6c-0.3,0.9-0.6,1.7-0.9,2.6c-0.1,0.4-0.1,0.9-0.2,1.3c0.2,0,0.3,0.1,0.5,0.1
	c0,0.2,0,0.4,0,0.6c-1.9,0-3.8,0-5.7,0c-0.1-0.6-0.1-0.6,0.4-0.7C17.1,15.1,16.8,14.1,16.5,13.2z M19.5,3.3c0,2.7,0,5.4,0,8
	c0,0.2,0,0.4-0.2,0.5c-0.4,0.2-0.4,1,0,1.3c0.2,0.2,0.4,0.2,0.6,0c0.4-0.3,0.4-1,0-1.3c-0.2-0.1-0.2-0.3-0.2-0.5c0-2.8,0-5.7,0-8.5
	c0-0.1,0-0.3,0-0.4c0,0,0,0-0.1,0C19.5,2.7,19.5,3,19.5,3.3z"/>
<path class="st2" d="M17.2,21.9l4.1-3.2c0.3-0.2,0.4-0.5,0.4-0.9v-0.7h-4.6V21.9z"/>
</svg>
